<svg xmlns="http://www.w3.org/2000/svg" width="36" height="36" fill="none" class="m-1"><g clip-path="url(#a)"><path fill="url(#b)" d="M6.706 11.335c0-4.925 4.007-8.932 8.932-8.932s8.932 4.007 8.932 8.932a9 9 0 0 1-.169 1.73l2.358.463c.142-.723.214-1.461.214-2.193A11.35 11.35 0 0 0 15.638 0 11.35 11.35 0 0 0 4.303 11.335c0 2.566.883 5.081 2.486 7.082l1.875-1.503a8.83 8.83 0 0 1-1.958-5.579z"/><path fill="url(#c)" d="M15.638 6.407a4.933 4.933 0 0 1 4.927 4.927h2.403a7.34 7.34 0 0 0-7.33-7.33 7.34 7.34 0 0 0-7.33 7.33 7.33 7.33 0 0 0 .959 3.623l2.088-1.19a4.925 4.925 0 0 1 4.283-7.36z"/><path fill="url(#d)" d="M28.375 17.3a3.31 3.31 0 0 0-1.06.173 3.33 3.33 0 0 0-3.186-2.374c-.392 0-.767.069-1.116.193a3.33 3.33 0 0 0-3.129-2.203c-.32 0-.628.046-.921.131v-1.884a3.33 3.33 0 0 0-3.324-3.324 3.33 3.33 0 0 0-3.324 3.324v6.998a3.338 3.338 0 0 0-.921-.131 3.33 3.33 0 0 0-3.324 3.324v6.236A8.25 8.25 0 0 0 16.307 36h7.157a8.25 8.25 0 0 0 8.237-8.237v-7.14a3.33 3.33 0 0 0-3.324-3.324zm.921 10.464a5.84 5.84 0 0 1-5.834 5.834h-7.157a5.84 5.84 0 0 1-5.834-5.834v-6.236a.922.922 0 0 1 1.842 0v4.852h2.403V11.336a.922.922 0 0 1 1.842 0V20.623h2.403v-4.21a.922.922 0 0 1 1.842 0v4.211h2.403v-2.201a.922.922 0 0 1 1.842 0v2.201h2.403a.922.922 0 0 1 1.842 0v7.14z"/></g><defs><linearGradient id="b" x1="4.303" x2="26.973" y1="9.252" y2="9.252" gradientUnits="userSpaceOnUse"><stop offset="0" stop-color="#6366f1"/><stop offset=".5" stop-color="#8b5cf6"/><stop offset="1" stop-color="#d946ef"/></linearGradient><linearGradient id="c" x1="8.309" x2="22.968" y1="9.506" y2="9.506" gradientUnits="userSpaceOnUse"><stop offset="0" stop-color="#6366f1"/><stop offset=".5" stop-color="#8b5cf6"/><stop offset="1" stop-color="#d946ef"/></linearGradient><linearGradient id="d" x1="8.068" x2="31.7" y1="22.073" y2="22.073" gradientUnits="userSpaceOnUse"><stop offset="0" stop-color="#6366f1"/><stop offset=".5" stop-color="#8b5cf6"/><stop offset="1" stop-color="#d946ef"/></linearGradient><clipPath id="a"><path fill="#fff" d="M0 0h36v36H0z"/></clipPath></defs></svg>