<svg xmlns="http://www.w3.org/2000/svg" baseProfile="tiny" viewBox="0 0 304 36"><path fill="#81B441" d="M22.038 6.715c-.865-.48-3.344-.183-6.322.738-5.212 3.562-9.61 8.811-9.917 17.238-.056.202-.57-.027-.672-.09-1.407-2.697-1.965-5.538-.79-9.635.219-.365-.497-.814-.626-.685-.258.258-1.333 1.404-2.047 2.642-3.54 6.141-1.225 14.009 4.968 17.453 6.192 3.449 14.011 1.224 17.459-4.97 3.989-7.148.285-21.385-2.053-22.691z"/><path fill="#fff" d="M44.202 10.145c-7.342 0-12.671 5.458-12.671 12.978C31.531 30.705 36.846 36 44.458 36c3.845 0 6.888-1.202 9.309-3.677.723-.781.801-1.533.801-1.821 0-1.226-.912-2.117-2.168-2.117-.633 0-1.163.239-1.77.801-1.371 1.277-3.176 2.582-6.172 2.582-4.166 0-7.554-3.128-7.768-7.145h16.581c1.803 0 2.679-.843 2.679-2.576 0-.51 0-.879-.103-1.605-.893-6.447-5.246-10.297-11.645-10.297zm0 4.026c3.981 0 6.536 2.537 6.693 6.632h-14.2c.373-3.789 3.577-6.632 7.507-6.632zm27.583-4.026c-3.335 0-6.637 1.918-7.927 4.581V13.08c0-2.55-1.976-2.679-2.372-2.679-1.171 0-2.423.704-2.423 2.679v19.881c0 2.648 2.104 2.782 2.525 2.782.421 0 2.526-.134 2.526-2.782V22.304c0-4.637 2.628-7.876 6.39-7.876 3.644 0 5.416 2.391 5.416 7.312v11.222c0 2.648 2.105 2.782 2.526 2.782.421 0 2.525-.134 2.525-2.782v-12.81c0-4.838-2.414-10.007-9.186-10.007zm32.04.257c-1.167 0-2.014.681-2.518 2.02L94.396 29.8l-6.858-17.378c-.537-1.36-1.377-2.02-2.569-2.02-1.393 0-2.526 1.087-2.526 2.423 0 .331.038.759.317 1.429l7.942 18.753c.946 2.262 2.503 2.737 3.643 2.737 1.139 0 2.696-.475 3.645-2.736l7.994-18.857c.273-.662.315-1.147.315-1.377 0-1.352-1.065-2.372-2.474-2.372zm14.688-.257c-3.231 0-6.24.9-8.472 2.532-.757.522-1.125 1.174-1.125 1.993 0 1.128.861 2.012 1.963 2.012.476 0 1.01-.19 1.499-.532 1.919-1.279 3.722-1.876 5.673-1.876 3.735 0 5.879 1.899 5.879 5.212v.549c-8.384.009-16.91 1.022-16.91 8.315 0 5.249 4.486 7.599 8.932 7.599 3.54 0 6.368-1.403 8.182-4.059v1.277c0 1.902 1.277 2.576 2.373 2.576.231 0 2.269-.072 2.269-2.576V19.794c-.002-6.042-3.839-9.649-10.263-9.649zm4.354 13.609h1.063v1.164c0 4.256-2.71 7.006-6.903 7.006-1.138 0-4.852-.265-4.852-3.676-.001-4.029 6.101-4.494 10.692-4.494zm19.061-8.763c2.21 0 2.322-1.72 2.322-2.064 0-1.023-.61-2.116-2.322-2.116h-4.545V6.215c0-2.053-1.332-2.782-2.474-2.782-.421 0-2.525.134-2.525 2.782v21.829c0 5.037 2.485 7.7 7.187 7.7 1.217 0 2.402-.215 3.178-.576.889-.444 1.398-1.173 1.398-2 0-1.167-.847-2.014-2.014-2.014-.225 0-.546.056-.9.158-.433.108-.726.15-1.046.15-1.913 0-2.804-1.249-2.804-3.931v-12.54h4.545zm16.703-4.846c-7.64 0-13.183 5.415-13.183 12.875 0 3.632 1.343 6.942 3.78 9.321C151.647 34.7 154.986 36 158.63 36c7.544 0 13.234-5.58 13.234-12.979.001-7.461-5.566-12.876-13.233-12.876zm0 21.573c-5.239 0-7.979-4.375-7.979-8.697 0-5.939 4.136-8.644 7.979-8.644s7.979 2.705 7.979 8.644c0 5.975-4.136 8.697-7.979 8.697z"/><path fill="#81B441" d="M211.554 11.937a6.612 6.612 0 0 0-2.725-1.777c-1.951-.68-4.619-.735-6.739-.061-.994.316-1.909.754-2.722 1.302a9.72 9.72 0 0 0-2.653 2.662c-.52-1.284-1.285-2.283-2.288-2.978-1.401-.972-3.205-1.465-5.363-1.465a9.12 9.12 0 0 0-3.105.522 9.904 9.904 0 0 0-2.604 1.404 9.862 9.862 0 0 0-2.023 2.061V10.82a.757.757 0 0 0-.757-.757h-1.219a.757.757 0 0 0-.757.757V34.8c0 .418.339.757.757.757h1.219a.757.757 0 0 0 .757-.757V19.713c.14-.709.395-1.502.759-2.359a9.958 9.958 0 0 1 1.504-2.451 7.933 7.933 0 0 1 2.288-1.871c.872-.481 1.92-.725 3.114-.725.873 0 1.69.102 2.426.305.689.19 1.266.511 1.763.982.493.469.886 1.122 1.169 1.94.296.854.446 1.967.446 3.309V34.8c0 .418.339.757.757.757h1.197a.757.757 0 0 0 .757-.757l-.002-15.906c.025-.361.117-.778.272-1.238.16-.473.387-.957.675-1.44a9.27 9.27 0 0 1 1.077-1.445c.41-.457.902-.872 1.464-1.233a7.966 7.966 0 0 1 1.911-.879c.705-.221 1.502-.339 2.368-.353l.155-.001c.806 0 1.562.101 2.247.303a4.017 4.017 0 0 1 1.761 1.04c.496.495.892 1.196 1.178 2.08.299.925.451 2.121.451 3.557V34.8c0 .418.339.757.757.757h1.197a.757.757 0 0 0 .757-.757V19.285c0-1.664-.187-3.111-.555-4.302-.377-1.224-.94-2.249-1.671-3.046zM235.82 33.56c-.07-.337-.129-.697-.178-1.083-.05-.392-.089-.804-.117-1.239a19.04 19.04 0 0 1-.043-1.27V17.956c0-1.355-.234-2.573-.697-3.62a7.196 7.196 0 0 0-1.969-2.646c-.828-.689-1.823-1.215-2.957-1.561-2.266-.689-5.181-.69-7.45.098-1.161.401-2.186.958-3.045 1.656a7.769 7.769 0 0 0-2.035 2.481 6.55 6.55 0 0 0-.737 3.015c0 .407.322.741.729.756l1.197.044a.732.732 0 0 0 .553-.211.756.756 0 0 0 .232-.545c0-.705.161-1.344.494-1.953a5.148 5.148 0 0 1 1.413-1.623c.615-.47 1.354-.843 2.197-1.111.852-.27 1.797-.407 2.807-.407 2.149 0 3.805.496 4.92 1.474 1.101.967 1.637 2.31 1.637 4.108v2.745h-4.984c-1.783 0-3.413.191-4.847.568-1.45.383-2.701.925-3.721 1.612-1.049.708-1.863 1.575-2.421 2.575a6.725 6.725 0 0 0-.85 3.316c0 1.061.197 2.05.584 2.939a6.673 6.673 0 0 0 1.674 2.323c.716.642 1.585 1.143 2.583 1.491.986.344 2.095.519 3.297.519 1.255 0 2.417-.139 3.451-.414a11.875 11.875 0 0 0 2.817-1.125 10.543 10.543 0 0 0 2.22-1.66l.275-.281.024.315c.071.837.195 1.568.371 2.175.093.324.39.547.727.547h1.374a.757.757 0 0 0 .757-.757V34.6a.752.752 0 0 0-.064-.303 3.915 3.915 0 0 1-.218-.737zm-11.734-.248c-.825 0-1.58-.122-2.247-.365a5.298 5.298 0 0 1-1.708-.987 4.461 4.461 0 0 1-1.091-1.43 3.949 3.949 0 0 1-.38-1.714c0-.768.189-1.455.578-2.102.396-.658.978-1.234 1.731-1.715.783-.499 1.758-.895 2.9-1.177 1.163-.287 2.503-.433 3.985-.433h4.917v4.774a9.183 9.183 0 0 1-1.315 2.058 8.479 8.479 0 0 1-1.913 1.658 8.888 8.888 0 0 1-2.452 1.061c-.913.246-1.924.372-3.005.372zm26.513-23.399a4.169 4.169 0 0 0-.863-.218 7.019 7.019 0 0 0-1.093-.076c-2.123 0-3.924.544-5.352 1.615a8.987 8.987 0 0 0-1.715 1.688V10.82a.757.757 0 0 0-.757-.757h-1.197a.757.757 0 0 0-.757.757V34.8c0 .418.339.757.757.757h1.197a.757.757 0 0 0 .757-.757V19.154c.18-.986.466-1.908.851-2.744a7.782 7.782 0 0 1 1.463-2.172 6.383 6.383 0 0 1 2.062-1.416c.787-.341 1.692-.514 2.691-.514.251 0 .492.013.723.039l.735.088c.198.024.4-.031.558-.153a.763.763 0 0 0 .287-.503l.133-1.064a.76.76 0 0 0-.48-.802zm10.043 11.186 10.484-9.725a.758.758 0 0 0-.514-1.312h-1.707a.752.752 0 0 0-.513.202l-10.911 10.09-1.538 1.454V.757a.757.757 0 0 0-.757-.757h-1.197a.757.757 0 0 0-.757.757V34.8c0 .418.339.757.757.757h1.197a.757.757 0 0 0 .757-.757v-9.582l2.687-2.31 10.541 12.383a.757.757 0 0 0 .576.266h1.573a.757.757 0 0 0 .462-1.356l-11.14-13.102zm27.856-8.391a9.162 9.162 0 0 0-3.139-2.281c-2.474-1.098-5.643-1.093-8.216.154a10.615 10.615 0 0 0-3.435 2.66c-.964 1.121-1.738 2.475-2.299 4.024-.559 1.547-.843 3.256-.843 5.079v.975c0 1.827.292 3.531.869 5.064.577 1.539 1.384 2.888 2.396 4.008a11.105 11.105 0 0 0 3.578 2.651c1.366.635 2.853.957 4.42.957a12.09 12.09 0 0 0 2.815-.309 10.49 10.49 0 0 0 2.353-.861 8.958 8.958 0 0 0 1.925-1.333 10.114 10.114 0 0 0 1.486-1.701.757.757 0 0 0-.184-1.047l-.842-.598a.753.753 0 0 0-1.036.154 8.116 8.116 0 0 1-1.437 1.47 7.005 7.005 0 0 1-1.54.911 7.167 7.167 0 0 1-1.675.481c-1.725.278-3.632.16-5.208-.618a8.591 8.591 0 0 1-2.72-2.109c-.77-.893-1.384-1.961-1.823-3.177-.441-1.219-.664-2.547-.664-3.943v-.551h17.218a.757.757 0 0 0 .757-.757v-1.396c0-1.602-.243-3.09-.721-4.422-.485-1.342-1.169-2.514-2.035-3.485zm-4.19.263a6.905 6.905 0 0 1 2.248 1.757 8.294 8.294 0 0 1 1.461 2.623c.298.858.47 1.767.512 2.707H273.45c.155-.911.406-1.775.75-2.58a9.542 9.542 0 0 1 1.734-2.722 7.778 7.778 0 0 1 2.435-1.789c1.795-.838 4.188-.855 5.939.004zm19.367 20.744a.767.767 0 0 0-.852-.617 27.16 27.16 0 0 1-1.124.141c-.654.069-1.575.107-2.316-.108a1.713 1.713 0 0 1-.806-.518c-.251-.272-.459-.683-.617-1.219-.17-.577-.257-1.363-.257-2.335V12.795h4.696a.757.757 0 0 0 .757-.757v-1.219a.757.757 0 0 0-.757-.757h-4.696V4.347a.757.757 0 0 0-.757-.757h-1.219a.757.757 0 0 0-.757.757v5.715h-3.676a.757.757 0 0 0-.757.757v1.219c0 .418.339.757.757.757h3.676V29.06c0 1.26.121 2.335.36 3.195.252.907.631 1.649 1.128 2.207a4.161 4.161 0 0 0 1.877 1.215c.677.215 1.448.324 2.29.324l.583-.012c.234-.008.475-.024.732-.047l.713-.08a3.58 3.58 0 0 0 .735-.172.759.759 0 0 0 .487-.843l-.2-1.132z"/></svg>